<svg width="60" height="60" viewBox="0 0 60 60" fill="none" xmlns="http://www.w3.org/2000/svg">
<rect width="60" height="60" rx="12" fill="#7F5EE4"/>
<path d="M31.3119 35.4992C29.5292 35.4992 27.7858 34.8485 26.4715 33.5319C25.7365 32.7992 25.7365 31.6131 26.4692 30.8804C27.2019 30.1477 28.3892 30.1477 29.1208 30.8792C30.4015 32.1577 32.6238 32.0192 34.0742 30.5665L39.8584 24.7823C40.6327 24.0115 41.0746 23.0042 41.0746 22.0188C41.0746 21.4304 40.9177 20.5765 40.1746 19.8312C39.3773 19.0327 38.4623 18.9012 37.8231 18.9335C36.8804 18.9762 35.9561 19.4065 35.2211 20.1415L31.9027 23.4577C31.1273 22.6823 27.9415 22.1135 27.0784 22.9777L32.5661 17.4912C33.9623 16.095 35.7634 15.2769 37.6431 15.1869C39.6034 15.0969 41.4427 15.8019 42.8204 17.1796C44.1115 18.4685 44.8223 20.1877 44.8223 22.02C44.8211 23.9931 43.9777 25.9673 42.5054 27.435L36.7223 33.2181C35.2108 34.7354 33.24 35.4992 31.3119 35.4992Z" fill="white"/>
<path d="M28.6881 24.5008C30.4685 24.5008 32.2131 25.1515 33.5296 26.4681C34.2635 27.2008 34.2623 28.3869 33.5296 29.1196C32.7981 29.8523 31.6108 29.8523 30.8781 29.1196C29.5985 27.8423 27.3762 27.9819 25.9246 29.4323L20.1404 35.2165C19.3673 35.9873 18.9242 36.9946 18.9242 37.98C18.9242 38.5661 19.0812 39.4223 19.8254 40.1677C20.6227 40.9638 21.5377 41.0977 22.1769 41.0677C23.1196 41.0227 24.0438 40.5923 24.7788 39.8573L28.0938 36.5435C28.8692 37.3177 32.055 37.8865 32.9192 37.0223L27.4315 42.5088C26.0365 43.905 24.2342 44.7231 22.3558 44.8131C20.3942 44.9054 18.555 44.1992 17.1762 42.8204C15.885 41.5315 15.1754 39.8123 15.1754 37.98C15.1765 36.0069 16.0188 34.0327 17.4912 32.565L23.2742 26.7819C24.7881 25.2669 26.7612 24.5008 28.6881 24.5008Z" fill="white"/>
</svg>
