<svg viewBox="0 0 9 9" fill="none" xmlns="http://www.w3.org/2000/svg">
<path d="M4.5 1.125C4.05679 1.125 3.61792 1.2123 3.20844 1.38191C2.79897 1.55152 2.42691 1.80012 2.11351 2.11351C1.80012 2.42691 1.55152 2.79897 1.38191 3.20844C1.2123 3.61792 1.125 4.05679 1.125 4.5C1.125 4.94321 1.2123 5.38208 1.38191 5.79156C1.55152 6.20103 1.80012 6.57309 2.11351 6.88649C2.42691 7.19988 2.79897 7.44848 3.20844 7.61809C3.61792 7.7877 4.05679 7.875 4.5 7.875C4.94321 7.875 5.38208 7.7877 5.79156 7.61809C6.20103 7.44848 6.57309 7.19988 6.88649 6.88649C7.19988 6.57309 7.44848 6.20103 7.61809 5.79156C7.7877 5.38208 7.875 4.94321 7.875 4.5C7.875 4.05679 7.7877 3.61792 7.61809 3.20844C7.44848 2.79897 7.19988 2.42691 6.88649 2.11351C6.57309 1.80012 6.20103 1.55152 5.79156 1.38191C5.38208 1.2123 4.94321 1.125 4.5 1.125Z" stroke="#7F5EE4" stroke-width="0.667583" stroke-miterlimit="10"/>
<path d="M1.125 5.625H7.875M4.5 1.125C4.30302 1.125 4.10796 1.2123 3.92597 1.38191C3.74399 1.55152 3.57863 1.80012 3.43934 2.11351C3.30005 2.42691 3.18956 2.79897 3.11418 3.20844C3.0388 3.61792 3 4.05679 3 4.5C3 4.94321 3.0388 5.38208 3.11418 5.79156C3.18956 6.20103 3.30005 6.57309 3.43934 6.88649C3.57863 7.19988 3.74399 7.44848 3.92597 7.61809C4.10796 7.7877 4.30302 7.875 4.5 7.875C4.69698 7.875 4.89204 7.7877 5.07403 7.61809C5.25601 7.44848 5.42137 7.19988 5.56066 6.88649C5.69995 6.57309 5.81044 6.20103 5.88582 5.79156C5.9612 5.38208 6 4.94321 6 4.5C6 4.05679 5.9612 3.61792 5.88582 3.20844C5.81044 2.79897 5.69995 2.42691 5.56066 2.11351C5.42137 1.80012 5.25601 1.55152 5.07403 1.38191C4.89204 1.2123 4.69698 1.125 4.5 1.125ZM1.125 3.375H7.875H1.125Z" stroke="#7F5EE4" stroke-width="0.667583" stroke-miterlimit="10"/>
</svg>
