<svg width="40" height="40" viewBox="0 0 40 40" fill="none" xmlns="http://www.w3.org/2000/svg">
<rect width="40" height="40" rx="8" fill="white"/>
<path d="M20.8746 23.6663C19.6862 23.6663 18.5239 23.2324 17.6477 22.3547C17.1577 21.8663 17.1577 21.0755 17.6462 20.587C18.1346 20.0986 18.9262 20.0986 19.4139 20.5863C20.2677 21.4386 21.7493 21.3463 22.7162 20.3778L26.5723 16.5217C27.0885 16.0078 27.3831 15.3363 27.3831 14.6794C27.3831 14.287 27.2785 13.7178 26.7831 13.2209C26.2516 12.6886 25.6416 12.6009 25.2154 12.6224C24.587 12.6509 23.9708 12.9378 23.4808 13.4278L21.2685 15.6386C20.7516 15.1217 18.6277 14.7424 18.0523 15.3186L21.7108 11.6609C22.6416 10.7301 23.8423 10.1847 25.0954 10.1247C26.4023 10.0647 27.6285 10.5347 28.547 11.4532C29.4077 12.3124 29.8816 13.4586 29.8816 14.6801C29.8808 15.9955 29.3185 17.3117 28.337 18.2901L24.4816 22.1455C23.4739 23.157 22.16 23.6663 20.8746 23.6663Z" fill="#7F5EE4"/>
<path d="M19.1252 16.3337C20.3121 16.3337 21.4752 16.7676 22.3529 17.6453C22.8421 18.1337 22.8413 18.9245 22.3529 19.413C21.8652 19.9014 21.0736 19.9014 20.5852 19.413C19.7321 18.5614 18.2505 18.6545 17.2829 19.6214L13.4267 23.4776C12.9113 23.9914 12.6159 24.663 12.6159 25.3199C12.6159 25.7107 12.7205 26.2814 13.2167 26.7784C13.7482 27.3091 14.3582 27.3984 14.7844 27.3784C15.4129 27.3484 16.029 27.0614 16.519 26.5714L18.729 24.3622C19.2459 24.8784 21.3698 25.2576 21.9459 24.6814L18.2875 28.3391C17.3575 29.2699 16.1559 29.8153 14.9036 29.8753C13.5959 29.9368 12.3698 29.466 11.4505 28.5468C10.5898 27.6876 10.1167 26.5414 10.1167 25.3199C10.1175 24.0045 10.679 22.6884 11.6605 21.7099L15.5159 17.8545C16.5252 16.8445 17.8405 16.3337 19.1252 16.3337Z" fill="#7F5EE4"/>
</svg>
