<svg viewBox="0 0 24 24" fill="none" xmlns="http://www.w3.org/2000/svg">
<g clip-path="url(#clip0_101_662)">
<path d="M3.80361 1.44788H5.24202L8.21755 9.17226H6.76787L6.04304 7.12757H2.95977L2.23494 9.17226H0.839355L3.80361 1.44788ZM3.3276 6.09936H5.68603L4.52845 2.77855H4.496L3.3276 6.09936ZM1.71069 14.43H7.58467V15.4573L3.08464 20.9865H7.6933V22.1549H1.36405V21.0514L5.86453 15.5984H1.71069V14.43Z" fill="#878787"/>
<path d="M21.6968 14.9927L18.1398 18.5493L14.5828 14.9927H21.6968ZM18.1398 5.23853V18.0607V5.23853Z" fill="#878787"/>
<path d="M18.1398 5.23853V18.0607M21.6968 14.9927L18.1398 18.5493L14.5828 14.9927H21.6968Z" stroke="#878787" stroke-width="1.80308" stroke-miterlimit="10" stroke-linecap="round"/>
</g>
<defs>
<clipPath id="clip0_101_662">
<rect width="23.44" height="22.5385" fill="white" transform="translate(0.560059 0.730713)"/>
</clipPath>
</defs>
</svg>
