<svg viewBox="0 0 7 7" fill="none" xmlns="http://www.w3.org/2000/svg">
<path d="M5.17708 5.90625H1.82292C1.42027 5.90625 1.09375 5.57973 1.09375 5.17708V1.82292C1.09375 1.42027 1.42027 1.09375 1.82292 1.09375H5.17708C5.57973 1.09375 5.90625 1.42027 5.90625 1.82292V5.17708C5.90625 5.57973 5.57973 5.90625 5.17708 5.90625Z" stroke="#7F5EE4" stroke-width="0.583333" stroke-miterlimit="10"/>
<path d="M1.09375 2.26038H5.90625" stroke="#7F5EE4" stroke-width="0.583333" stroke-miterlimit="10"/>
<path d="M2.26034 3.79167C2.46169 3.79167 2.62492 3.62844 2.62492 3.42708C2.62492 3.22573 2.46169 3.0625 2.26034 3.0625C2.05898 3.0625 1.89575 3.22573 1.89575 3.42708C1.89575 3.62844 2.05898 3.79167 2.26034 3.79167Z" fill="#7F5EE4"/>
<path d="M3.50008 3.79167C3.70144 3.79167 3.86466 3.62844 3.86466 3.42708C3.86466 3.22573 3.70144 3.0625 3.50008 3.0625C3.29873 3.0625 3.1355 3.22573 3.1355 3.42708C3.1355 3.62844 3.29873 3.79167 3.50008 3.79167Z" fill="#7F5EE4"/>
<path d="M2.26034 5.10417C2.46169 5.10417 2.62492 4.94094 2.62492 4.73958C2.62492 4.53823 2.46169 4.375 2.26034 4.375C2.05898 4.375 1.89575 4.53823 1.89575 4.73958C1.89575 4.94094 2.05898 5.10417 2.26034 5.10417Z" fill="#7F5EE4"/>
<path d="M3.50008 5.10417C3.70144 5.10417 3.86466 4.94094 3.86466 4.73958C3.86466 4.53823 3.70144 4.375 3.50008 4.375C3.29873 4.375 3.1355 4.53823 3.1355 4.73958C3.1355 4.94094 3.29873 5.10417 3.50008 5.10417Z" fill="#7F5EE4"/>
<path d="M4.73958 3.79167C4.94094 3.79167 5.10417 3.62844 5.10417 3.42708C5.10417 3.22573 4.94094 3.0625 4.73958 3.0625C4.53823 3.0625 4.375 3.22573 4.375 3.42708C4.375 3.62844 4.53823 3.79167 4.73958 3.79167Z" fill="#7F5EE4"/>
</svg>
