<svg viewBox="0 0 6 8" fill="none" xmlns="http://www.w3.org/2000/svg">
<path d="M1.50976 3.51814C1.41353 3.2978 1.36011 3.05444 1.36011 2.79867C1.36011 1.80526 2.16537 1 3.15878 1C4.15218 1 4.95745 1.80526 4.95745 2.79867C4.95745 2.92188 4.94503 3.04221 4.92147 3.1584" stroke="#878787" stroke-width="0.539601" stroke-miterlimit="10" stroke-linecap="round" stroke-linejoin="round"/>
<path d="M3.698 3.96777L4.90905 4.18793C5.32256 4.26311 5.58373 4.67519 5.47545 5.08115L5.04701 6.72837C4.99287 6.93126 4.82613 7.08432 4.61946 7.12066L3.66095 7.28973C3.5203 7.31455 3.37838 7.25376 3.29906 7.13505L3.03699 6.74204C2.93986 6.59652 2.8136 6.47278 2.66611 6.3787L1 5.31677C1.04461 4.78257 1.59554 4.44586 2.09125 4.64982L2.6188 4.8671V2.79863C2.6188 2.50059 2.86036 2.25903 3.1584 2.25903C3.45644 2.25903 3.698 2.50059 3.698 2.79863V3.96777Z" stroke="#878787" stroke-width="0.539601" stroke-miterlimit="10" stroke-linecap="round" stroke-linejoin="round"/>
</svg>
