<svg viewBox="0 0 9 9" fill="none" xmlns="http://www.w3.org/2000/svg">
<path d="M2.625 4.125H6.375V4.875H2.625V4.125Z" fill="#878787"/>
<path d="M6.75 2.625C6.483 2.625 5.517 2.625 5.25 2.625V3.375C5.5395 3.375 6.4605 3.375 6.75 3.375C7.37138 3.375 7.875 3.87862 7.875 4.5C7.875 5.12137 7.37138 5.625 6.75 5.625C6.4605 5.625 5.5395 5.625 5.25 5.625V6.375C5.517 6.375 6.483 6.375 6.75 6.375C7.78538 6.375 8.625 5.53537 8.625 4.5C8.625 3.46462 7.78538 2.625 6.75 2.625ZM2.25 6.375C2.517 6.375 3.483 6.375 3.75 6.375V5.625C3.4605 5.625 2.5395 5.625 2.25 5.625C1.62863 5.625 1.125 5.12137 1.125 4.5C1.125 3.87862 1.62863 3.375 2.25 3.375C2.5395 3.375 3.4605 3.375 3.75 3.375V2.625C3.483 2.625 2.517 2.625 2.25 2.625C1.21463 2.625 0.375 3.46462 0.375 4.5C0.375 5.53537 1.21463 6.375 2.25 6.375Z" fill="#878787"/>
</svg>
