<svg width="159" height="60" viewBox="0 0 159 60" fill="none" xmlns="http://www.w3.org/2000/svg">
<rect width="60" height="60" rx="12" fill="#7F5EE4"/>
<path d="M31.3119 35.4992C29.5292 35.4992 27.7858 34.8485 26.4715 33.5319C25.7365 32.7992 25.7365 31.6131 26.4692 30.8804C27.2019 30.1477 28.3892 30.1477 29.1208 30.8792C30.4015 32.1577 32.6238 32.0192 34.0742 30.5665L39.8585 24.7823C40.6327 24.0115 41.0746 23.0042 41.0746 22.0188C41.0746 21.4304 40.9177 20.5765 40.1746 19.8312C39.3773 19.0327 38.4623 18.9012 37.8231 18.9335C36.8804 18.9762 35.9562 19.4065 35.2212 20.1415L31.9027 23.4577C31.1273 22.6823 27.9415 22.1135 27.0785 22.9777L32.5662 17.4912C33.9623 16.095 35.7635 15.2769 37.6431 15.1869C39.6035 15.0969 41.4427 15.8019 42.8204 17.1796C44.1115 18.4685 44.8223 20.1877 44.8223 22.02C44.8212 23.9931 43.9777 25.9673 42.5054 27.435L36.7223 33.2181C35.2108 34.7354 33.24 35.4992 31.3119 35.4992Z" fill="white"/>
<path d="M28.6881 24.5008C30.4685 24.5008 32.2131 25.1515 33.5296 26.4681C34.2635 27.2008 34.2623 28.3869 33.5296 29.1196C32.7981 29.8523 31.6108 29.8523 30.8781 29.1196C29.5985 27.8423 27.3762 27.9819 25.9246 29.4323L20.1404 35.2165C19.3673 35.9873 18.9242 36.9946 18.9242 37.98C18.9242 38.5661 19.0812 39.4223 19.8254 40.1677C20.6227 40.9638 21.5377 41.0977 22.1769 41.0677C23.1196 41.0227 24.0438 40.5923 24.7788 39.8573L28.0938 36.5435C28.8692 37.3177 32.055 37.8865 32.9192 37.0223L27.4315 42.5088C26.0365 43.905 24.2342 44.7231 22.3558 44.8131C20.3942 44.9054 18.555 44.1992 17.1762 42.8204C15.885 41.5315 15.1754 39.8123 15.1754 37.98C15.1765 36.0069 16.0188 34.0327 17.4912 32.565L23.2742 26.7819C24.7881 25.2669 26.7612 24.5008 28.6881 24.5008Z" fill="white"/>
<path d="M93.183 20.22C94.9792 20.22 96.534 20.5194 97.8474 21.1181C99.1801 21.7169 100.204 22.5667 100.918 23.6676C101.633 24.7685 101.99 26.0722 101.99 27.5787C101.99 29.0659 101.633 30.3697 100.918 31.4899C100.204 32.5908 99.1801 33.4406 97.8474 34.0394C96.534 34.6188 94.9792 34.9085 93.183 34.9085H89.098V40.5H84.4046V20.22H93.183ZM92.9222 31.0843C94.3322 31.0843 95.4041 30.7849 96.1381 30.1862C96.872 29.5681 97.239 28.699 97.239 27.5787C97.239 26.4392 96.872 25.5701 96.1381 24.9713C95.4041 24.3533 94.3322 24.0442 92.9222 24.0442H89.098V31.0843H92.9222ZM112.527 40.7318C110.866 40.7318 109.369 40.3938 108.036 39.7178C106.723 39.0225 105.689 38.0664 104.936 36.8496C104.202 35.6328 103.835 34.2518 103.835 32.7067C103.835 31.1615 104.202 29.7806 104.936 28.5638C105.689 27.347 106.723 26.4006 108.036 25.7246C109.369 25.0293 110.866 24.6816 112.527 24.6816C114.168 24.6816 115.598 25.0293 116.814 25.7246C118.05 26.4006 118.949 27.3759 119.509 28.6507L116.003 30.5338C115.192 29.1046 114.023 28.3899 112.498 28.3899C111.319 28.3899 110.344 28.7762 109.572 29.5488C108.799 30.3214 108.413 31.374 108.413 32.7067C108.413 34.0394 108.799 35.092 109.572 35.8646C110.344 36.6371 111.319 37.0234 112.498 37.0234C114.043 37.0234 115.211 36.3088 116.003 34.8795L119.509 36.7917C118.949 38.0278 118.05 38.9935 116.814 39.6888C115.598 40.3841 114.168 40.7318 112.527 40.7318ZM128.69 34.387L126.517 36.5309V40.5H121.998V19.0032H126.517V31.1712L133.123 24.9134H138.511L132.022 31.5189L139.091 40.5H133.615L128.69 34.387ZM156.321 19.0032V40.5H152.004V38.7038C150.884 40.0558 149.261 40.7318 147.137 40.7318C145.669 40.7318 144.336 40.4034 143.139 39.7467C141.961 39.0901 141.034 38.1533 140.358 36.9365C139.682 35.7197 139.344 34.3098 139.344 32.7067C139.344 31.1036 139.682 29.6937 140.358 28.4769C141.034 27.2601 141.961 26.3233 143.139 25.6666C144.336 25.0099 145.669 24.6816 147.137 24.6816C149.126 24.6816 150.681 25.3093 151.801 26.5647V19.0032H156.321ZM147.919 37.0234C149.059 37.0234 150.005 36.6371 150.758 35.8646C151.512 35.0727 151.888 34.0201 151.888 32.7067C151.888 31.3933 151.512 30.3503 150.758 29.5778C150.005 28.7859 149.059 28.3899 147.919 28.3899C146.76 28.3899 145.804 28.7859 145.051 29.5778C144.298 30.3503 143.921 31.3933 143.921 32.7067C143.921 34.0201 144.298 35.0727 145.051 35.8646C145.804 36.6371 146.76 37.0234 147.919 37.0234Z" fill="#7F5EE4"/>
</svg>
